<svg xmlns="http://www.w3.org/2000/svg" viewBox="0 0 331.12 247.35"><defs><style>.cls-1{fill:#3773b9;opacity:0.3;}.cls-2{fill:#f3f0f0;}.cls-3{fill:#ebe8e9;}.cls-4{fill:#edeaea;}.cls-5{fill:#60a3d9;}.cls-6{fill:#b0ccde;}.cls-7{fill:#c3e2f7;}.cls-8{fill:#397abd;}.cls-9{fill:#1875bb;}.cls-10{fill:#ffd20e;}.cls-11{fill:#95d2f2;}.cls-12{fill:#fff;}.cls-13{fill:#1a2550;}.cls-14{fill:#015184;}.cls-15{fill:#f6f4f9;}.cls-16{fill:#1f3b71;}.cls-17{fill:#7bb037;}.cls-18{fill:#f9c5c9;}.cls-19{fill:#2a2b69;}.cls-20{fill:#8dc741;}.cls-21{fill:#292b68;}.cls-22{fill:#2673b9;}.cls-23{fill:#d2d0d0;}.cls-24{fill:#cdcbce;}.cls-25{fill:#034e4a;}.cls-26{fill:#008389;}.cls-27{fill:#f9a141;}.cls-28{fill:#f57f20;}.cls-29{fill:#bddaf2;}.cls-30{fill:#f59722;}.cls-31{fill:#c9c7c7;}.cls-32{fill:#1a2449;}.cls-33{fill:#3b6fa4;}.cls-34{fill:#223967;}.cls-35{fill:#fbd9d9;}.cls-36{fill:#f8cfcf;}</style></defs><g id="Layer_2" data-name="Layer 2"><g id="try_it_for_free_learn_more" data-name="try it for free, learn more"><path class="cls-1" d="M193.77,247.34c-60.3.28-108.19-7.25-83.12-11.33-61.18,3.7-116.54-5.3-110.14-28.1,5.81-20.73,129.16-12.75,92.05-18.25-18.2-2.7-44.2-12.53-12-14.12,6.37-.32,35.17-4.39,16.71-15.17-6.47-3.78,201.3-8,184.62,11.53-2.53,3-63.32,18.41-52.45,19.75,25.36,3.13,102.51,12.75,101.63,29-.67,12.49-42.2,12.44-56,12.39-3.44,0-5.14,0-4,.16,6.46,1.08,56.65,13.56-77.34,14.17"/><path class="cls-2" d="M207.58,104.78a52,52,0,0,0-10.46-4.38,42.47,42.47,0,0,1,10.09-3.68,22.3,22.3,0,0,1,.37,8.06m-33.41,52.4h-2.23v-7.66c.07-.44.15-.9.22-1.35H176c-.48,2.75-1.07,5.8-1.8,9"/><path class="cls-3" d="M171.94,165.9v-8.73h2.23c-.63,2.81-1.37,5.74-2.23,8.72"/><path class="cls-2" d="M192.24,103.46c.21-1.32.48-2.67.82-4a32.73,32.73,0,0,1,4.06,1,36.49,36.49,0,0,0-4.88,3.06"/><path class="cls-4" d="M194.91,125.73a41.51,41.51,0,0,1-2.67-22.27,36.49,36.49,0,0,1,4.88-3.06,52,52,0,0,1,10.46,4.38c-.68,5.75-3.51,13.72-12.67,21"/><path class="cls-5" d="M260.61,141.66H147.9a2,2,0,0,1-2-2V109.22a2,2,0,0,1,2-2H260.61a2,2,0,0,1,2,2v30.41a2,2,0,0,1-2,2"/><path class="cls-6" d="M203.77,110.38h-109v7h109c5.26,0,9.53,3.36,9.53,7.52v-7c0-4.16-4.27-7.53-9.53-7.53"/><path class="cls-7" d="M203.77,117.41h-109v21.06h109c5.26,0,9.53-3.37,9.53-7.52v-6c0-4.16-4.27-7.52-9.53-7.52"/><rect class="cls-6" x="95.04" y="126.66" width="52.57" height="1.28"/><rect class="cls-6" x="95.04" y="130.54" width="29.75" height="1.28"/><path class="cls-8" d="M202.05,141.61H94.17c-2.1,0-3.8-1.12-3.8-2.5s1.7-2.51,3.8-2.51H202.05c4.9,0,8.89-3.15,8.89-7v-10c0-3.86-4-7-8.89-7H94.17c-2.1,0-3.8-1.12-3.8-2.5s1.7-2.51,3.8-2.51H202.05c8.4,0,15.23,5.4,15.23,12v10c0,6.63-6.83,12-15.23,12"/><path class="cls-5" d="M251.09,72.54H164.56a2,2,0,0,1-2-2V40.1a2,2,0,0,1,2-2h86.53a2,2,0,0,1,2,2V70.52a2,2,0,0,1-2,2"/><path class="cls-6" d="M194.25,41.27h-109v7h109c5.26,0,9.53,3.37,9.53,7.52v-7c0-4.15-4.27-7.52-9.53-7.52"/><path class="cls-7" d="M194.25,48.29h-109V69.35h109c5.26,0,9.53-3.37,9.53-7.52v-6c0-4.15-4.27-7.52-9.53-7.52"/><rect class="cls-6" x="85.52" y="57.54" width="52.57" height="1.28"/><rect class="cls-6" x="85.52" y="61.42" width="29.75" height="1.28"/><path class="cls-8" d="M192.53,72.49H84.65c-2.1,0-3.8-1.12-3.8-2.5s1.7-2.51,3.8-2.51H192.53c4.9,0,8.88-3.14,8.88-7v-10c0-3.87-4-7-8.88-7H84.65c-2.1,0-3.8-1.13-3.8-2.51s1.7-2.5,3.8-2.5H192.53c8.4,0,15.23,5.39,15.23,12v10c0,6.63-6.83,12-15.23,12"/><path class="cls-8" d="M119.68,107.1h86.54a2,2,0,0,0,2-2V74.66a2,2,0,0,0-2-2H119.68a2,2,0,0,0-2,2v30.41a2,2,0,0,0,2,2"/><path class="cls-6" d="M176.52,75.83h109v7h-109c-5.26,0-9.53,3.36-9.53,7.52v-7c0-4.16,4.27-7.52,9.53-7.52"/><path class="cls-7" d="M176.52,82.85h109v21.06h-109c-5.26,0-9.53-3.37-9.53-7.52v-6c0-4.16,4.27-7.52,9.53-7.52"/><rect class="cls-6" x="232.68" y="92.1" width="52.57" height="1.28"/><rect class="cls-6" x="255.5" y="95.98" width="29.75" height="1.28"/><path class="cls-9" d="M178.24,107.05H286.12c2.1,0,3.81-1.12,3.81-2.5s-1.71-2.51-3.81-2.51H178.24c-4.9,0-8.88-3.14-8.88-7V85c0-3.87,4-7,8.88-7H286.12c2.1,0,3.81-1.12,3.81-2.5s-1.71-2.5-3.81-2.5H178.24C169.84,73,163,78.41,163,85V95c0,6.63,6.83,12,15.23,12"/><path class="cls-10" d="M178.3,89.47h18.4s3,.39,3,4.41v28l-9-4.67-8.37,4V94s.65-4.54-3.95-4.54"/><rect class="cls-11" x="61.89" y="176.8" width="117.79" height="36.74"/><rect class="cls-12" x="137.82" y="176.8" width="117.79" height="36.74"/><rect class="cls-13" x="59.22" y="212.16" width="117.13" height="4.09"/><path class="cls-14" d="M249.6,216.26H176.34v-4.1H249.6a4.86,4.86,0,0,0,4.86-4.85V183.93a4.87,4.87,0,0,0-4.86-4.86H175.67V175H249.6a9,9,0,0,1,9,9v23.38a9,9,0,0,1-9,8.95"/><rect class="cls-13" x="59.44" y="174.98" width="116.23" height="4.09"/><rect class="cls-15" x="64.85" y="207.18" width="173.12" height="0.85"/><rect class="cls-15" x="80.19" y="198.74" width="173.12" height="0.85"/><rect class="cls-15" x="63.83" y="184.42" width="173.12" height="0.85"/><rect class="cls-15" x="69.96" y="186.97" width="173.12" height="0.85"/><rect class="cls-8" x="109.1" y="143.77" width="62.83" height="29.94"/><path class="cls-6" d="M149.93,146.23h75.58v6.17H149.93a6.61,6.61,0,0,0-6.61,6.61v-6.17a6.61,6.61,0,0,1,6.61-6.61"/><path class="cls-7" d="M149.93,152.4h75.58v18.51H149.93a6.61,6.61,0,0,1-6.61-6.61V159a6.61,6.61,0,0,1,6.61-6.61"/><rect class="cls-6" x="188.89" y="160.54" width="36.47" height="1.12"/><rect class="cls-6" x="204.72" y="163.94" width="20.64" height="1.12"/><polyline class="cls-16" points="140.56 173.68 228.6 173.68 228.6 169.27 144.96 169.27 144.96 148.16 228.6 148.16 228.6 143.76 140.56 143.76 140.56 173.68"/><path class="cls-5" d="M151.17,158.22h12.76s2,.34,2,3.88v24.61l-6.26-4.1-5.82,3.53V162.21s.46-4-2.73-4"/><path class="cls-17" d="M216.48,26.92c1.17.19,6.32,2,6.81,6s1.94,16.53,1.94,16.53l5.16-14.39,3.79-.29s-2,16.72-6.71,21-6.71-3-6.71-3l-2.43-8.17-1.85-17.69"/><path class="cls-18" d="M233.4,35.37s0-1.94.58-2.23a19.23,19.23,0,0,0,3.5-2.82c.39-.59,1.85-4.47.88-4.28s-4.18,3.21-4.18,3.21.68-2.14.39-2.53-1.95,2.33-2.14,2.82-.68,6-.68,6l1.65-.2"/><path class="cls-18" d="M216.36,7.18c.35,1.05,1.5,8.66.64,10.52s-1.5,3.7-4.7,4l3.91,8.89-2.32,8.66-8.75-3s-5.49-4.91-5.14-5.92,6.05-10.24,6.05-10.24l2.59-13,6.45-1.36,1,1.1.26.28"/><path class="cls-19" d="M209.6,10.89s-.65,8.94-2.51,11.89.48,8.79-1.89,10.56c-1.56,1.16-6,7.39-7.55,8.53-2.72,2-6.35,1-9.41-4.7s-5.19-12.37,6.56-21.53c0,0-2-6.93,1.73-8.29a19.64,19.64,0,0,0,4.76-2.15s1.64-7,10.31-4.74,6.75,7.21,6.75,7.21,5,14.82-4.62,18.37l-1.43-4.32s4.29-1.07,4.7-4-.64-10.52-.64-10.52a7.51,7.51,0,0,1-6.76,3.71"/><path class="cls-20" d="M212.88,30.22c-1.92.7-4.31-3.54-6.45-6.16,0,0-6.68,3.71-5.81,3.34,0,0-.37,7.88-.57,16.33-.41,17-2.6,17.46-2.6,17.46s8.85,1.43,9,1.14,7.12-.46,7.32-1.23,3.74-12.6,4.91-14.45,2.82-9.72,1.55-12-3.79-7.68-3.79-7.68l-3.4-2.24s2.24,4.67-.2,5.54"/><polyline class="cls-18" points="236.22 109.12 236.65 114.81 239.5 114.53 239.78 108.69 236.22 109.12"/><polyline class="cls-18" points="209.81 105.64 207.71 110.96 210.4 111.94 213.2 106.81 209.81 105.64"/><path class="cls-21" d="M235.36,113.25l4.71.71s4.7,3.13,6.55,3.28,3.7,1.85,1.85,2.13-13.68-.57-13.68-.57l.57-5.55"/><path class="cls-21" d="M203.07,67.87s25,3.28,24.31,10.4,7.41,31.27,7.41,31.27l6.7-.14s-4.72-30.54-4.72-34.82-23.45-13.69-23.45-13.69l-10.25,7"/><path class="cls-21" d="M207.3,110.11l4.85,1.86s.28,3.42,2.13,3.84,4.7,1.85,4.42,3-8.55-.57-8.55-.57L204.74,114l2.56-3.85"/><path class="cls-22" d="M197.73,61s-5.65,7.35.52,11.59c5.21,3.6,21.1,4.09,20.58,5.26C217.69,80.44,207,107.12,207,107.12l6.41,1.57s16.06-23.1,17.06-30.22-17.59-16.3-17.59-16.3L197.73,61"/><path class="cls-18" d="M216.15,58.87l.43.1.49.08a8.27,8.27,0,0,0,1,.11,10.85,10.85,0,0,0,2,0,7.34,7.34,0,0,0,1.84-.5,5.64,5.64,0,0,0,1.53-1l.08-.07A1.08,1.08,0,0,1,225.07,59a7.85,7.85,0,0,1-2,1.81,10.14,10.14,0,0,1-2.42,1,13.1,13.1,0,0,1-2.54.43c-.42,0-.85.05-1.27.05l-.65,0-.7-.06-.1,0a1.72,1.72,0,1,1,.46-3.41l.3.07"/><path class="cls-17" d="M203.9,26.62s3.85,1.66.86,11.64-6.58,14,.26,16.28S218.34,59,218.34,59l-.44,3.49s-22.47-1.33-23-8.74S198,31,198.72,29.42s1.3-2.8,5.18-2.8"/><path class="cls-12" d="M234.81,33.62l-.9-1.44s-10.17.72-12,4.86c0,0-7.11-5.58-12.69-4.23l-.36,2.61,12.78,5.31,13.14-7.11"/><polyline class="cls-8" points="236.34 32.54 221.58 38.57 206.91 33.26 206.91 54.04 221.13 60.52 235.62 54.31 236.34 32.54"/><path class="cls-23" d="M210.42,187h-.37v-.24l.37.24m4,3.5a.65.65,0,0,0-.33-.42L210,188.21c0-.13,0-.26,0-.38h1.76l3.5,2.13-.87.51"/><path class="cls-24" d="M211.78,187.83H210c0-.31,0-.6,0-.86h.37c.44.29.9.57,1.36.86"/><path class="cls-25" d="M283,226.13s.59,5.45-.41,6.75c-.59.76-11.12,1.28-11.52.29s1.87-3.26,4.73-4.13,2.26-3.15,2.26-3.15l4.94.24"/><path class="cls-25" d="M314.81,220.05s4.1,4.72,3.6,6.83-10.1,6.19-10.1,6.19-2.5-1.43.2-4.62c4.32-5.12,2.7-6.91,2.7-6.91l3.6-1.49"/><path class="cls-26" d="M278.32,163.46s-3.84,22.09-2.73,35.24,1.49,28.18,1.49,28.18l6.95.37s-.9-29.75.34-32.61,4.1-24.81,4.1-24.81l3.12-.19s1.38,27.82,3.24,31.05,15.39,22.83,15.39,22.83l5.21-3.1s-11.42-24.2-11-25.81.37-27.31.37-27.31l-11.42-1.36-15-2.48"/><path class="cls-27" d="M285.91,113.87s-15.87,6-17.48,20.29,13.77-2.69,13.77-2.69l1.39,26.84s-4.51-7.21,3.06-7-1.24-12.41-1.24-12.41l.5-25.07"/><path class="cls-28" d="M287.86,112.18s3.34,2.31,5.31,2.14,4.71-2.49,4.71-2.49a16.43,16.43,0,0,1,10.37,9.51l.87,3.14-3.46,42.91c.92.79-18.49,1.49-27.44-2.51-.47-.21,1.33-8.58,2-16.92.49-5.85.28-11.46.66-16.42.33-4.3.55-7.49.55-8.24,0-2.86,1.05-11,6.42-11.12"/><path class="cls-18" d="M290.26,112.18l.08-2.49s-4-.94-4.79-3.94a67.2,67.2,0,0,1-1.12-9.25l3.09-4.19,3.85-.34,3.94,3.85,5.47,1.91-2.7,7.13-2.94,2.35.08,4.62,3.86,1s.26,4.62-5.57,4.11-6.08-3.94-6.08-3.94l2.83-.77"/><path class="cls-18" d="M281,142.72l-1.56,1.86a.35.35,0,0,0,0,.48l4.91,4.11a.33.33,0,0,0,.47,0l1.56-1.86a.33.33,0,0,0,0-.47l-4.9-4.11a.34.34,0,0,0-.48,0"/><polyline class="cls-25" points="254.71 118.96 273.51 107.17 280.33 136.53 260.63 148.03 254.71 118.96"/><path class="cls-29" d="M270.54,105.09s1.49,5.93-3,9.49-12.16,4.75-12.16,4.75l5.71,28.5s17.13-1.51,16.24-11.3l-6.83-31.44"/><path class="cls-12" d="M255.42,119.33s18.39-.3,24,10.08l3.26,21.06s-19.25-4.37-22.17-2.84l-5.11-28.3"/><polyline class="cls-26" points="254.91 118.86 255.06 120.65 280.92 131.78 283.98 156.05 259.82 149.03 254.91 118.86"/><polyline class="cls-25" points="263.83 131.59 274.06 135.2 275.86 143.82 263.23 141.12 263.83 131.59"/><path class="cls-18" d="M285.44,148.51l-.44.23a1.43,1.43,0,0,1-1.93-.59l-5.68-3.83c-.37-.69-1.35-3.42-.66-3.78l5.67,2.14c-1.89-2.47-1.4-3.46,1.77.36l1.87,3.54a1.43,1.43,0,0,1-.6,1.93"/><path class="cls-27" d="M307.29,120.41a7.25,7.25,0,0,0-6-1.31c-3.34.85-2.05,8.3-2.05,8.3s1.79,10.13,2.57,15.18c.57,3.74-9.14,3.83-16.59,1.47-.72-.23-1.52.86-1.52.86s-.84,3.42-.8,3.46c4.06,4.54,25.07,9.11,26-4.52.74-10.9.64-12.7.05-21.24l-1.68-2.2"/><path class="cls-18" d="M256.05,129.15l.61,3.63a1,1,0,0,0,1.72.37c1-1.5,1.82-3.7-1-5a1,1,0,0,0-1.35,1"/><path class="cls-25" d="M301,122.17c0-2-4.86-.65-5.55-2.55-1-2.71.61-.31.08-3.15-.14-.73-4,1-4.16.08.29-.32,2.92-3.34,3.63-6.18.31-1.26-1.54-3-1.24-4.24a13.31,13.31,0,0,1,1.41-3.71c.21-.41-.08-.17.27-.25a3.73,3.73,0,0,0,2.34-1.81,1.45,1.45,0,0,0,.13-1.65c-.42-.63-.77-.94-.9-.91a12.14,12.14,0,0,0,1.1-4.41A8.22,8.22,0,0,0,296,88a5.42,5.42,0,0,0-1.22-1.17c-.07,0-.22-.09-.16-.2a.35.35,0,0,1,.05-.08A12.46,12.46,0,0,1,300.34,89c2.94,2.16,4.29,5.27,5.08,8.68a7.84,7.84,0,0,0,1.7,3.51,7.44,7.44,0,0,1,1.28,2,4.48,4.48,0,0,1-.11,4.28,5.66,5.66,0,0,0-.69,2,2.79,2.79,0,0,0,.39,2.33,14.37,14.37,0,0,1,2.33,3.35l0,1a7.06,7.06,0,0,1-1.08,1.83,1.89,1.89,0,0,0-.3,1.71,8.13,8.13,0,0,1,.38,3.22c-.16,1.24-.65,1.78-1.88,1.59-2.16-.34-4.33-.53-6.48-.87h0a5.48,5.48,0,0,1,.05-1.4"/><path class="cls-25" d="M294.51,89.75a6,6,0,0,1,1.67,2.89,15.3,15.3,0,0,1,.1,4.87c0,.11,0,.22,0,.33h0a6,6,0,0,0-3.95-.46,2.89,2.89,0,0,1-2.1-.49,5.27,5.27,0,0,0-2.59-.84,4.28,4.28,0,0,1-1.83-.52c-.47-.24-.65-.1-.84.34-.52,1.22.05,2.55.05,3.87,0,2.11.42,3.47.43,5,0,1.34.82,2.18,1.9,3.17a33.66,33.66,0,0,0,3.28,1.9c-.19.89-.85,7.2-.85,7.2-.58,1.22-.61.59-2.42.72-.14,0-1.8,1.15-1.94,1.15-.64,0-1.38-1.11-2-1.15-1.09-.07-2.09.91-3,.76-.07,0-.51-4.27-.56-4.21-.28-.39-.73-.64-.92-1.1,0-.12,0-.23-.05-.34a3.26,3.26,0,0,1,.84-3.18,8.81,8.81,0,0,0,.78-1,2,2,0,0,0,.3-1.51c-.2-1,.69-2,.24-2.9a3.4,3.4,0,0,1,.27-3.55A6.48,6.48,0,0,1,282.9,99c1.31-.94.71-2.24,1-3.8.05-.3.11-.56-.31-.63-.19,0-.24-.21-.26-.4A3.14,3.14,0,0,1,284,91.7a6.34,6.34,0,0,0,1.12-1.82,4.58,4.58,0,0,1,3.37-2.82l.71-.17a20.31,20.31,0,0,1,2.19.47,7.41,7.41,0,0,1,3.08,2.39"/><path class="cls-30" d="M294.69,86.56a.18.18,0,0,0-.05.08c-.06.11.09.15.16.2A5.42,5.42,0,0,1,296,88a8.22,8.22,0,0,1,2.13,5.38,12.14,12.14,0,0,1-1.1,4.41l-.78,0h0c0-.11,0-.22,0-.33a15.3,15.3,0,0,0-.1-4.87,6,6,0,0,0-1.67-2.89,7.41,7.41,0,0,0-3.08-2.39,20.31,20.31,0,0,0-2.19-.47,7.56,7.56,0,0,1,2.78-1c-.27-.19-.47-.33-.66-.48-1.08-.84-1-.57-.86-2,.08-.61.46-.81,1-.48a6.22,6.22,0,0,1,1.08.9c.5.49.19-.24.62.43.19-1,2.07-.34,2.65-1,.34-.38.72-.33.8.1.3,1.58-.69,1.85-1.95,3.22"/><polyline class="cls-18" points="79.99 214.87 78.68 221.29 75.48 220.55 76 213.87 79.99 214.87"/><polyline class="cls-18" points="110.28 211.39 112.68 217.48 109.59 218.61 106.39 212.73 110.28 211.39"/><path class="cls-21" d="M80.36,219.69l-5.44.13s-5.8,2.88-7.92,2.78-4.48,1.57-2.42,2.16,15.63,1.33,15.63,1.33l.15-6.4"/><path class="cls-21" d="M118.14,176.4s-28.82-4.53-28,3.63-8.49,35.83-8.49,35.83L74,215.69s5.4-35,5.4-39.88,27-7.4,27-7.4l11.75,8"/><path class="cls-21" d="M113.15,216.51l-5.55,2.12s-.33,3.92-2.45,4.41-5.39,2.12-5.06,3.43,9.79-.66,9.79-.66l6.2-4.89-2.93-4.41"/><path class="cls-22" d="M125.81,168.57s4.92,8.4-2.15,13.27c-6,4.12-24.32-3.61-23.72-2.27,1.3,2.94,13.53,33.51,13.53,33.51l-7.34,1.8s-18.41-26.46-19.55-34.62,20.3-10.38,20.3-10.38l18.93-1.31"/><path class="cls-18" d="M103.29,110.14s-2.12,12.73,6,12.73l-.33,8.82,7.51-3.27L116,109l-10-.33-2.78,1.47"/><path class="cls-28" d="M116.67,124.18l-8.16,3.43s-6.23,33.49-4.73,38.68,7.51,4.24,7.51,4.24l15.67-.65-1.31-18.94-9-26.76"/><path class="cls-18" d="M93.5,161.23l-.51,0-.57,0a11,11,0,0,1-1.14-.1,12.84,12.84,0,0,1-2.23-.49,8.66,8.66,0,0,1-2-1,6.43,6.43,0,0,1-1.5-1.49l-.07-.1a1.23,1.23,0,0,0-2.09,1.3,9.14,9.14,0,0,0,1.85,2.47,11,11,0,0,0,2.5,1.72,15.62,15.62,0,0,0,2.76,1c.47.13.94.24,1.42.33.24.05.49.08.73.12s.47.06.8.08h.12a2,2,0,1,0,.23-3.93,1.37,1.37,0,0,0-.35,0"/><path class="cls-27" d="M117.33,126s-11.1-1.31-7.67,10.11,9,16.16,1.14,18.77-18.12,5.71-18.12,5.71l.66,6.21s34.11,1.63,34.76-6.86S123.85,134.79,123,133s-4.08-6-5.71-7"/><path class="cls-21" d="M99.79,105.62s.17,4.56,4.64,5.07a21.27,21.27,0,0,0,7.27-.26l1.18,3s.93-1.6,1.6-.76,1.18,2.71.17,3.21-1.27-.42-1.27-.42l.68,1.6s1-.08,1.27.59a21.2,21.2,0,0,1,.5,2.88l.59-.17s1.27-7.94,1.52-11,.36-4.64-1-5.66c-2.62-1.94-6.92-.33-9.88-1.6s-7.17-.67-7.17-.67l-.09,4.13"/><polyline class="cls-21" points="79.22 135.16 94.46 125.6 99.98 149.39 84.02 158.71 79.22 135.16"/><path class="cls-29" d="M92.05,123.92s1.21,4.8-2.4,7.69-9.85,3.84-9.85,3.84l4.62,23.1s13.88-1.23,13.16-9.16l-5.53-25.47"/><path class="cls-12" d="M79.8,135.45s14.9-.24,19.46,8.18l2.65,17.06s-15.6-3.54-18-2.3L79.8,135.45"/><polyline class="cls-22" points="79.39 135.07 79.51 136.52 100.47 145.55 102.94 165.21 83.37 159.53 79.39 135.07"/><path class="cls-18" d="M91.73,162.29s-1.13-3.58-2.27-3.74S90,163,90,163l1.78-.73"/><polyline class="cls-21" points="86.62 145.39 94.9 148.31 96.36 155.3 86.13 153.11 86.62 145.39"/><path class="cls-31" d="M139.23,175h-1.12c.55-.33,1-.62,1.35-.85l.34,0a.88.88,0,0,0,.44-.09l.73-.34h1.91a7.42,7.42,0,0,1-.73.43c-.45.22-1.22.51-2,.77-.25,0-.58,0-1,.06"/><path class="cls-32" d="M137.86,175.12l.25-.14h1.12c-.4,0-.86.08-1.37.14"/><path class="cls-33" d="M142.88,173.72H141l.09,0H143l-.07,0"/><path class="cls-34" d="M143,173.68h-1.89c.2-.11.36-.2.36-.25v0l.05,0,1.38-.8.89.51-.78.54"/><path class="cls-35" d="M35,190.68a36.47,36.47,0,0,1-5.55,1c.1.59.2,1.18.31,1.77a15,15,0,0,1,.51,2.47,11.67,11.67,0,0,1,.9,2.87,30.81,30.81,0,0,1,.37,3.84,41.46,41.46,0,0,1,.2,4.59,4.07,4.07,0,0,1,0,2.05,9.55,9.55,0,0,1-.22,1.68,2.89,2.89,0,0,1,.1,1.37c0,.12,0,.22,0,.32,0,1.28.3.63,1.86.66a11.92,11.92,0,0,0,1.89,0c1.12-.14,1.49.16,1.61-.38a4.54,4.54,0,0,0,0-.69,16.16,16.16,0,0,0-.08-3,1.59,1.59,0,0,1,.09-1.09,40.78,40.78,0,0,1-.24-4.28h0a4,4,0,0,1-.21-.64c-.22-2-.46-3.9-.66-5.85a3.48,3.48,0,0,1-.14-1.43,4.49,4.49,0,0,1-.42-1.83,26.31,26.31,0,0,1-.38-3.42"/><path class="cls-35" d="M34.05,153.73c0,.06,0,.24,0,.49v0c0-.16,0-.31,0-.47"/><path class="cls-36" d="M36.76,188.19a6.38,6.38,0,0,0,.46,1.19c.27.43-.78.89-2.25,1.3a26.31,26.31,0,0,0,.38,3.42,4.49,4.49,0,0,0,.42,1.83,22.91,22.91,0,0,1,1.88-2.6c.67-.81,1.37-1.59,2.05-2.39a39.63,39.63,0,0,1-2.94-2.75"/><path class="cls-36" d="M42.14,173.91l-.19.24a.58.58,0,0,0,.19-.24"/><path class="cls-25" d="M37,208.13h0a1.59,1.59,0,0,0-.09,1.09,16.16,16.16,0,0,1,.08,3,3.66,3.66,0,0,1,0,.69c-.12.54-.49.24-1.61.38a11.92,11.92,0,0,1-1.89,0c-1.56,0-1.81.62-1.86-.66,0-.1,0-.2,0-.32a2.89,2.89,0,0,0-.1-1.37.91.91,0,0,0-.24.49,9.49,9.49,0,0,0-.23,3.23c.17,1.67.33,2.83,1.83,3.71A3.05,3.05,0,0,0,35.6,218c1-1,.92-1.61,1.58-2.79a2.53,2.53,0,0,0,.31-1.3c0-.55-.08-1.09-.13-1.63s.08-.47.48-.38c.74.17,1.51.28,2.27.38s1.18-.2,1.2-.7a6.9,6.9,0,0,0-1.53-4.94.71.71,0,0,0-.72-.33,10,10,0,0,1-2,1.8"/><path class="cls-36" d="M29.23,202.9c.91,1.39,1.58,2.93,2.48,4.33a41.46,41.46,0,0,0-.2-4.59,30.81,30.81,0,0,0-.37-3.84,11.67,11.67,0,0,0-.9-2.87L29,197.84c-.14.73-.33,1.45-.42,2.19a4.16,4.16,0,0,0,.65,2.87"/><path class="cls-25" d="M31.71,207.23c-.9-1.4-1.57-2.94-2.48-4.33a4.16,4.16,0,0,1-.65-2.87c.09-.74.28-1.46.42-2.19-1.75,1.48-2.82,2.86-2.05,4.8.33.85,1,1.25,1.43,2,.93,1.56,2.4,3.06,3.33,4.62a4.07,4.07,0,0,0,0-2.05"/><path class="cls-36" d="M37,208.13h0a10,10,0,0,0,2-1.8,11.44,11.44,0,0,1-2.28-2.48h0a40.78,40.78,0,0,0,.24,4.28"/><path class="cls-25" d="M52.68,166.31c-.22-1.09-3.81-17.31-4.14-18.4s-5.77-17.85-5.77-17.85l-10.09,2,1.38.19s0,10.06,0,16.42c1.62,4.67,5.82,16.75,6.43,18,.71,1.41,2.24,6,1.66,7.28a.58.58,0,0,1-.19.24c-.8.52-4.54,6.26-6.34,9.33.39,1.8.81,3.56,1.15,4.71a39.63,39.63,0,0,0,2.94,2.75c1.42,1.18,2.62,1.92,2.74,1.38.33-1.41,8.82-15,9.26-15.89s1.19-9,1-10.12"/><path class="cls-26" d="M37.22,189.38a6.38,6.38,0,0,1-.46-1.19c-.34-1.15-.76-2.91-1.15-4.71a54.77,54.77,0,0,1-1.11-6.61c0-1.52-.38-19.42-.44-22.65,0-.25,0-.43,0-.49,0-.24,0-2.31,0-5.07,0-6.36,0-16.42,0-16.42l-1.38-.19c-.86-.13-2-.3-2.86-.46-1.74-.33-8.27-1.09-8.27-1.09C21,130.82,20.24,147,20.24,147s2.5,16.55,2.39,18.18,5.23,26,5.45,26.45c.05.1.57.1,1.34,0a36.47,36.47,0,0,0,5.55-1c1.47-.41,2.52-.87,2.25-1.3"/><path class="cls-18" d="M54.88,96.18a36.51,36.51,0,0,0,.93-4.24,42.18,42.18,0,0,0-.53-5.6s1.89-1.22,1.93,1.47l.19,1.28s1.71-2.23,2.2-1.78,3.34,1.24,1.63,4.17a68.33,68.33,0,0,1-4.61,6.57l-1.74-1.87"/><path class="cls-17" d="M61.35,89.34l2.71,2.78S54.57,122.83,47.51,115c-.29-.32-6.1-10.34-6.1-10.34L39.53,85.82a4.85,4.85,0,0,1,3.19,3c2.36,5.44,6.12,14.56,7.18,19.32,0,0,10.33-19.11,11.45-18.84"/><path class="cls-18" d="M34.35,63.13c.81,1,5.55,7.92,5.32,10.34s-.31,3.23-3.76,4.84l.41,5L40,89.19l2.19,8.75-10.93.11s-2.94-9.85-2.94-11.11.31-8.74.31-8.74L23.75,67.6,29.14,61l1.56.82,3.65,1.35"/><path class="cls-20" d="M34.41,86c-2.29.82-6.07-.27-6-3,0,0-4.43,2.7-4.65,2.94a34.56,34.56,0,0,0-2.21,17.93c.87,5.82-1.1,15-1.1,15S18.72,131.64,19,131.3s18.26,5.5,24.64,0c1.64-1.42-2-15.34-2-14.65.25,4.64-.08-5.1,1.3-7.28s3.34-11.5,1.84-14.27S40.3,86,40.3,86l-4-2.65s1,1.58-1.86,2.62"/><polyline class="cls-25" points="63.58 91.26 48.33 81.7 42.8 105.51 58.78 114.84 63.58 91.26"/><path class="cls-29" d="M50.74,80s-1.21,4.81,2.4,7.69S63,91.56,63,91.56l-4.63,23.11s-13.89-1.22-13.17-9.16L50.74,80"/><path class="cls-12" d="M63,91.56s-14.91-.24-19.48,8.18l-2.65,17.07s15.62-3.54,18-2.3l4.14-23"/><polyline class="cls-26" points="63.41 91.18 63.29 92.63 42.32 101.66 39.84 121.34 59.43 115.65 63.41 91.18"/><polyline class="cls-25" points="56.18 101.5 47.88 104.43 46.42 111.42 56.66 109.23 56.18 101.5"/><path class="cls-18" d="M36,116.47s3.18-6.07,3.74-5.8-1,3.66-1,3.66,7-.9,7,.8,2.07,4.65-5,5.72-8.29.8-8.29.8l.08-3.93L36,116.47"/><path class="cls-17" d="M23.46,86c2.26-1.71-1.69,14.11-.35,28.66L35,115l2.23,7.33S24.09,124,17.44,120c-1.7-1-1.33-5.06-2.11-11.83-.87-7.59-.2-15.86,8.13-22.18"/><path class="cls-18" d="M57.91,90.05c.05.65,1.63,2.28,2.6,1.88a1.69,1.69,0,0,0,1.11-1.17l.13-1.82-1.43-1.82L59,87.51a3,3,0,0,0-1,2.54"/><path class="cls-25" d="M41.94,77.27c-.56-.1-.36.18-.94,0,0,0-.74,1.17-.83,1.25a3,3,0,0,1-2.28-.11,9.76,9.76,0,0,1-.23-2.15A21.83,21.83,0,0,0,37.49,70c-.05-.35-.08-.7-.13-1.05a5.75,5.75,0,0,0-1.5-3.06,3.23,3.23,0,0,0-.39-.44,19.4,19.4,0,0,0-3.41-2.72c-.91-.61-3.56,3.11-3.72,4.56a4.28,4.28,0,0,0,.75,3,5.3,5.3,0,0,1,.9,3.23,3.24,3.24,0,0,1-.48,1.57,1.64,1.64,0,0,0-.06,1.63,7.13,7.13,0,0,1,.67,1.73,7,7,0,0,1,.21,1.43c0,.44-.31.38-.55.67-1.56,1.88-4.46,1.78-5.2,1.77-1.34.16-2.31,1-3.37,1.3a14.15,14.15,0,0,1-3.37.43c-.51,0-.73-.22-.54-.69a6.28,6.28,0,0,0,0-3.36,8.17,8.17,0,0,1,.15-3.9,4.35,4.35,0,0,1,1.38-2c1.16-1,1.61-4.34,1.66-5.92a6.58,6.58,0,0,1,2.39-4.47c1.62-1.18,1.8-1.76,3.49-2.82A2.1,2.1,0,0,1,28,60.62c.1,0,1.88-.55,2-.6,1.59-.74,3.33,0,4.78.72.95.47,3,4.88,4.19,5.28a3.61,3.61,0,0,1,2.66,3.16,6.6,6.6,0,0,0,.32,1.45,2.52,2.52,0,0,0,1.14,1.42c1,.53,1,2.29,1.35,3.24.25.69-.12,2.36-.83,2.5-.92.18-.76-.8-1.66-.52"/></g></g></svg>