<?xml version="1.0" encoding="UTF-8" standalone="no"?>
<!DOCTYPE svg PUBLIC "-//W3C//DTD SVG 1.1//EN" "http://www.w3.org/Graphics/SVG/1.1/DTD/svg11.dtd">
<svg version="1.1" xmlns="http://www.w3.org/2000/svg" xmlns:xlink="http://www.w3.org/1999/xlink" preserveAspectRatio="xMidYMid meet" viewBox="0 0 640 640" width="40" height="40"><defs><path d="M65.15 574.78C32.7 574.78 6.4 548.48 6.4 515.97C6.4 484.61 6.4 233.73 6.4 202.37C6.4 169.86 32.7 143.55 65.15 143.55C71.69 143.55 104.37 143.55 163.2 143.55C163.2 131.8 163.2 125.27 163.2 123.97C163.2 91.46 189.5 65.22 221.95 65.22C241.56 65.22 398.38 65.22 417.98 65.22C450.5 65.22 476.74 91.52 476.74 123.97C476.74 125.28 476.74 131.83 476.74 143.62C535.56 143.62 568.25 143.62 574.78 143.62C607.3 143.55 633.6 169.92 633.6 202.37C633.6 233.73 633.6 484.61 633.6 515.97C633.6 548.48 607.23 574.78 574.85 574.78C472.91 574.78 116.12 574.78 65.15 574.78ZM565.06 182.78C556.56 182.78 514.09 182.78 437.63 182.78C437.63 153.37 437.63 137.03 437.63 133.76C437.63 117.57 424.51 104.38 408.26 104.38C390.61 104.38 249.45 104.38 231.81 104.38C215.62 104.38 202.43 117.57 202.43 133.76C202.43 137.03 202.43 153.37 202.43 182.78C125.98 182.78 83.5 182.78 75.01 182.78C58.82 182.78 45.63 195.97 45.63 212.16C45.63 241.56 45.63 476.72 45.63 506.11C45.63 522.3 58.82 535.49 75.01 535.49C124.01 535.49 516.05 535.49 565.06 535.49C581.25 535.49 594.43 522.3 594.43 506.11C594.43 486.52 594.43 388.53 594.43 212.16C585.64 192.58 575.85 182.78 565.06 182.78ZM182.85 339.65C182.85 263.87 244.29 202.43 320 202.43C395.78 202.43 457.15 263.87 457.15 339.58C457.15 415.3 395.78 476.8 320 476.8C244.22 476.8 182.85 415.36 182.85 339.65ZM221.95 339.65C221.95 393.86 265.86 437.57 320 437.57C374.14 437.57 418.05 393.73 418.05 339.52C418.05 285.31 374.14 241.6 320 241.6C265.86 241.6 221.95 285.44 221.95 339.65ZM280.77 339.58C274.05 339.58 267.26 339.58 261.12 339.58C261.12 307.14 287.49 280.83 319.87 280.83C319.87 280.83 319.87 280.83 319.87 280.83L320 300.35L320 300.35C293.85 312.04 280.77 325.12 280.77 339.58Z" id="cXVf1Is35"></path></defs><g><g><g><use xlink:href="#cXVf1Is35" opacity="1" fill="#ffffff" fill-opacity="1"></use><g><use xlink:href="#cXVf1Is35" opacity="1" fill-opacity="0" stroke="#000000" stroke-width="1" stroke-opacity="0"></use></g></g></g></g></svg>