<?xml version="1.0" encoding="UTF-8" standalone="no"?>
<!DOCTYPE svg PUBLIC "-//W3C//DTD SVG 1.1//EN" "http://www.w3.org/Graphics/SVG/1.1/DTD/svg11.dtd">
<svg version="1.1" xmlns="http://www.w3.org/2000/svg" xmlns:xlink="http://www.w3.org/1999/xlink" preserveAspectRatio="xMidYMid meet" viewBox="0 0 640 640" width="640" height="640"><defs><path d="M26.67 320C26.67 467.28 146.06 586.67 293.33 586.67C440.61 586.67 560 467.28 560 320C560 172.72 440.61 53.33 293.33 53.33C146.06 53.33 26.67 172.72 26.67 320ZM80 320C80 202.18 175.51 106.67 293.33 106.67C411.15 106.67 506.67 202.18 506.67 320C506.67 437.82 411.15 533.33 293.33 533.33C175.51 533.33 80 437.82 80 320ZM266.67 186.67C266.67 194.52 266.67 233.81 266.67 304.53C233.07 323.89 214.4 334.65 210.67 336.8C197.85 344.06 193.35 360.33 200.61 373.15C205.38 381.56 214.33 386.73 224 386.67C228.67 386.7 233.27 385.5 237.33 383.2C241.96 380.53 265.07 367.2 306.67 343.2L309.07 340.8C311.63 338.72 313.05 337.56 313.33 337.33C314.38 336.01 315.27 334.58 316 333.07C316.87 331.64 317.58 330.12 318.13 328.53C318.86 326.84 319.31 325.04 319.47 323.2C319.47 323.2 320 320 320 320C320 306.67 320 200 320 186.67C320 171.94 308.06 160 293.33 160C278.61 160 266.67 171.94 266.67 186.67Z" id="cC38d94ph"></path></defs><g><g><g><use xlink:href="#cC38d94ph" opacity="1" fill="#000000" fill-opacity="1"></use><g><use xlink:href="#cC38d94ph" opacity="1" fill-opacity="0" stroke="#000000" stroke-width="1" stroke-opacity="0"></use></g></g></g></g></svg>