<?xml version="1.0" encoding="UTF-8" standalone="no"?>
<!DOCTYPE svg PUBLIC "-//W3C//DTD SVG 1.1//EN" "http://www.w3.org/Graphics/SVG/1.1/DTD/svg11.dtd">
<svg version="1.1" xmlns="http://www.w3.org/2000/svg" xmlns:xlink="http://www.w3.org/1999/xlink" preserveAspectRatio="xMidYMid meet" viewBox="0 0 640 640" width="640" height="640"><defs><path d="M175.33 104.24C170.76 121.76 169.06 139.81 169.58 163.21C169.97 183.62 169.97 183.62 166.96 184.4C161.99 185.57 152.84 195.12 149.57 202.44C146.04 210.55 144.73 229.38 146.82 239.58C150.75 257.63 160.68 274.63 176.77 290.59C185.4 299.08 187.62 302.23 190.11 309.29C199.26 334.92 215.35 358.71 232.08 371.53C232.52 371.86 234.7 373.52 238.62 376.5L238.62 391.67L238.62 406.71C226.62 410.79 219.95 413.05 218.62 413.5C151.92 436 80.79 464.63 72.29 472.35C69.54 474.84 60.65 501.25 56.2 520.21C49.4 549.5 48.49 558.27 48.49 587.82C48.49 620.25 49.66 625.74 56.72 630.58C57.02 630.78 58.5 631.78 61.17 633.59C216.05 633.59 302.1 633.59 319.31 633.59C602.3 633.59 582.81 634.11 587 626C590.53 619.21 592.1 601.68 591.31 578.14C590.39 548.33 585.16 518.91 575.23 486.08C572.22 476.27 571.44 474.96 566.46 471.83C551.95 462.68 502.78 442.14 440.67 419.26C438.31 418.39 426.54 414.08 405.36 406.31L404.96 392.32L404.57 378.32C409.67 372.99 412.5 370.03 413.07 369.43C427.06 354.53 438.44 335.96 448.51 311.76C451.78 303.53 454 300.38 461.32 293.59C472.04 283.65 480.67 272.28 486.56 260.63C501.2 231.48 495.97 194.99 475.71 185.83C475.37 185.68 473.72 184.94 470.74 183.61C471.05 171.92 471.23 165.43 471.26 164.13C473.36 77.69 436.48 23.68 365.34 9.04C353.7 6.68 303.1 5.5 287.8 7.21C229.08 14.01 189.98 47.62 175.33 104.24ZM440.67 121.5C443.8 137.45 444.59 161.38 442.62 182.04C441.32 196.17 441.32 201 442.5 203.23C444.98 207.8 451.78 211.2 458.58 211.2C466.55 211.2 467.99 213.68 467.87 226.89C467.74 243.89 459.1 259.46 440.67 276.19C435.3 281.03 430.46 286.26 430.07 287.7C428.11 294.11 412.94 322.75 405.36 334.25C400.91 341.18 392.67 351.39 387.18 357C386.52 357.68 383.21 361.03 377.24 367.07L377.24 393.88L377.24 420.69C379.44 422.81 380.66 423.99 380.9 424.22C383.26 426.58 390.05 429.72 400.78 433.38C409.8 436.51 417.39 439.39 417.65 439.65C419.62 441.22 395.68 460.58 380.38 469.6C366.78 477.57 347.96 485.16 334.22 487.91C318.14 491.05 293.16 490 277.2 485.29C261.77 480.72 243.72 472.08 229.73 462.28C217.31 453.64 209.08 446.98 209.99 446.2C210.25 445.8 221.63 441.88 235.23 437.43C252.36 431.81 260.86 428.28 262.82 426.19C266.36 422.4 267.4 412.2 267.4 383.95C267.4 361.85 267.4 361.72 255.89 353.87C237.58 341.32 222.41 319.48 214.96 294.89C212.21 285.61 211.42 284.56 200.44 274.1C194.16 268.08 186.58 259.58 183.71 255.27C176.9 245.2 172.72 231.6 173.5 222.32C174.29 212.77 175.86 211.2 184.49 211.2C190.37 211.2 192.2 210.55 195.73 207.4C200.7 202.96 200.7 202.04 198.09 175.49C194.04 134.17 203.32 93.5 222.28 69.7C233.79 55.06 251.83 43.81 271.97 38.71C287.4 34.91 287.4 34.91 324.28 35.31C354.62 35.58 359.33 35.97 368.74 38.59C408.5 49.57 432.04 76.77 440.67 121.5Z" id="dC22C0z8Q"></path></defs><g><g><g><use xlink:href="#dC22C0z8Q" opacity="1" fill="#ffffff" fill-opacity="1"></use><g><use xlink:href="#dC22C0z8Q" opacity="1" fill-opacity="0" stroke="#000000" stroke-width="1" stroke-opacity="0"></use></g></g></g></g></svg>