<?xml version="1.0" encoding="UTF-8" standalone="no"?>
<!DOCTYPE svg PUBLIC "-//W3C//DTD SVG 1.1//EN" "http://www.w3.org/Graphics/SVG/1.1/DTD/svg11.dtd">
<svg version="1.1" xmlns="http://www.w3.org/2000/svg" xmlns:xlink="http://www.w3.org/1999/xlink" preserveAspectRatio="xMidYMid meet" viewBox="0 0 640 640" width="640" height="640"><defs><path d="M189.27 21.25C163.89 34.46 146.5 54.21 135.9 82.46C128.19 102.86 126.23 114.76 125.7 144.72C125.67 146.5 125.49 155.39 125.18 171.4C121.64 173.59 119.68 174.82 119.29 175.06C112.1 179.64 107.52 186.31 104.9 196.51C98.5 221.23 110.13 251.44 134.59 273.81C140.22 278.78 142.31 281.92 144.14 287.41C151.07 309.12 166.76 332.93 182.2 345.22C182.67 345.6 185.03 347.47 189.27 350.85L189.27 364.58L189.27 378.32C171.38 384.52 161.44 387.96 159.45 388.65C103.99 407.87 55.46 427.1 40.94 435.73C34.66 439.53 34.01 440.44 30.61 450.25C25.77 463.72 18.44 492.62 15.96 507.8C12.95 525.32 12.04 550.43 13.87 563.78C15.7 577.38 17.14 580.91 21.45 582.87C23.67 583.92 74.94 584.31 202.73 584.31C214.61 584.31 273.99 584.31 380.87 584.31C385.58 589.1 388.19 591.76 388.72 592.29C424.29 628.26 475.17 641.86 524.09 628.66C537.04 625.13 560.45 613.62 571.31 605.38C628.73 561.69 643.9 482.82 607.01 420.56C598.25 405.65 574.58 381.98 559.67 373.22C536.38 359.35 514.28 353.46 486.16 353.46C450.59 353.46 422.99 363.66 393.82 387.47C393.55 387.7 392.2 388.83 389.77 390.87C377.29 387.26 370.36 385.25 368.97 384.85C357.59 381.45 347.92 378.57 347.26 378.18C346.73 377.79 346.21 371.51 346.21 364.19C346.21 363.29 346.21 358.8 346.21 350.71C350.22 346.87 352.44 344.73 352.88 344.3C364.65 332.66 376.29 313.04 384.79 290.55C387.41 283.62 389.77 280.21 396.95 273.15C407.68 262.82 415.92 250.78 421.28 238.36C424.55 230.52 425.2 227.11 425.73 214.82C426.12 202.26 425.86 199.39 423.37 192.71C420.23 184.47 412.38 175.44 407.16 174.14C406.95 174.09 405.9 173.82 404.02 173.35C403.63 156.4 403.41 146.98 403.37 145.1C402.58 115.41 401.54 107.69 395.12 87.94C380.08 42.04 343.46 13.39 292.58 7.51C279.38 5.95 247.6 6.07 233.73 7.65C219.61 9.35 202.34 14.58 189.27 21.25ZM375.9 116.6C378.39 130.46 378.78 164.47 376.56 177.41C375.38 183.96 375.51 186.57 376.95 190.1C379.17 195.46 385.06 198.6 392.25 198.21C397.61 197.82 397.88 197.95 399.57 203.05C402.32 211.16 400.75 222.14 395 233.79C391.33 241.24 387.54 246.08 378.25 255.37C367.79 265.7 365.83 268.31 362.04 277.6C353.27 299.18 341.37 318.41 328.68 331.62C328.15 332.17 325.49 334.96 320.7 339.99C320.47 354.51 320.34 362.57 320.31 364.19C319.79 390.74 320.58 394.79 326.46 397.8C328.29 398.85 335.87 401.2 343.33 403.16C350.66 405.12 356.67 407.22 356.67 407.87C356.67 409.7 340.58 423.44 329.99 430.5C316.26 439.65 303.83 445.8 289.96 450.25C280.68 453.25 275.84 453.91 260.54 454.43C244.97 454.96 240.52 454.69 230.72 452.34C216.72 449.07 203.12 443.44 191.09 436.25C181.15 430.36 163.1 416.89 163.1 415.46C163.1 414.93 172.39 411.4 183.77 407.61C209.15 399.24 211.24 398.2 213.59 392.7C215.95 386.94 216.21 342.87 213.86 337.77C213.07 335.94 209.41 332.67 205.88 330.44C189.66 320.51 174.48 298.8 167.16 275.25C164.68 267.14 163.5 265.44 151.6 253.67C136.03 238.23 130.41 228.17 129.36 214.04C128.97 208.42 129.36 203.58 130.41 201.09C131.97 197.3 132.37 197.17 137.6 197.96C144.53 198.87 150.28 196.26 152.51 190.89C153.69 188.01 153.82 184.61 152.77 177.03C150.68 162.12 150.94 130.21 153.3 116.6C160.49 75.53 181.68 49.11 216.08 38.12C221.84 36.29 229.82 34.33 233.74 33.81C244.33 32.24 285.4 32.24 294.94 33.67C339.94 40.99 367.4 69.11 375.9 116.6ZM590.66 445.93C597.86 461.11 599.95 470 600.86 488.18C601.39 500.35 601.13 506.49 599.42 515C590.27 560.12 557.18 594.65 512.71 605.37C498.2 608.9 475.44 609.16 462.09 606.02C413.31 594.38 378.12 555.14 372.24 505.57C365.43 447.64 406.9 391.78 465.36 380.4C475.17 378.44 498.59 378.84 509.44 381.06C544.88 388.26 575.1 412.32 590.66 445.93Z" id="bqej5Et7i"></path><path d="M468.51 518.78C459.4 509.84 454.34 504.87 453.33 503.87C438.81 489.48 438.03 488.83 432.67 488.83C425.08 488.83 419.46 494.2 419.46 501.39C419.46 505.96 420.76 507.67 440.65 527.68C463.4 550.57 466.41 552.53 473.87 548.61C475.96 547.43 495.19 528.99 516.64 507.54C553.79 470.13 555.49 468.3 555.49 463.46C555.49 457.18 553.79 454.05 548.95 451.56C540.44 447.11 540.44 447.11 503.16 484.26C498.54 488.86 486.99 500.37 468.51 518.78Z" id="c2UOlhwPII"></path></defs><g><g><g><use xlink:href="#bqej5Et7i" opacity="1" fill="#ffffff" fill-opacity="1"></use><g><use xlink:href="#bqej5Et7i" opacity="1" fill-opacity="0" stroke="#000000" stroke-width="1" stroke-opacity="0"></use></g></g><g><use xlink:href="#c2UOlhwPII" opacity="1" fill="#ffffff" fill-opacity="1"></use><g><use xlink:href="#c2UOlhwPII" opacity="1" fill-opacity="0" stroke="#000000" stroke-width="1" stroke-opacity="0"></use></g></g></g></g></svg>