<?xml version="1.0" encoding="UTF-8" standalone="no"?>
<!DOCTYPE svg PUBLIC "-//W3C//DTD SVG 1.1//EN" "http://www.w3.org/Graphics/SVG/1.1/DTD/svg11.dtd">
<svg version="1.1" xmlns="http://www.w3.org/2000/svg" xmlns:xlink="http://www.w3.org/1999/xlink" preserveAspectRatio="xMidYMid meet" viewBox="0 0 640 640" width="640" height="640"><defs><path d="M320 627.2C468.21 627.2 588.8 506.61 588.8 358.4C588.8 232.28 501.36 126.45 384 97.63C384 93.68 384 73.94 384 38.4L422.4 38.4L422.4 12.8L384 12.8L256 12.8L217.6 12.8L217.6 38.4L256 38.4C256 73.94 256 93.68 256 97.63C138.64 126.45 51.2 232.28 51.2 358.4C51.2 506.61 171.79 627.2 320 627.2ZM332.8 600.95C332.8 598.43 332.8 585.85 332.8 563.2L307.2 563.2C307.2 585.85 307.2 598.43 307.2 600.95C183.33 594.46 83.94 495.07 77.45 371.2C79.97 371.2 92.55 371.2 115.2 371.2L115.2 345.6C92.55 345.6 79.97 345.6 77.45 345.6C83.53 229.73 170.87 135.3 283.55 118.23C287.51 117.63 291.44 116.84 295.45 116.44C297.74 116.21 300.11 116.25 302.41 116.08C314.12 115.25 325.88 115.25 337.59 116.08C339.9 116.25 342.26 116.21 344.55 116.44C348.56 116.84 352.49 117.64 356.45 118.23C473.28 135.92 563.2 236.72 563.2 358.4C563.2 488.18 460.94 594.23 332.8 600.95ZM281.6 38.4L358.4 38.4C358.4 70.76 358.4 88.74 358.4 92.34C356.02 92.01 353.63 91.85 351.23 91.57C348.94 91.3 346.65 91.05 344.33 90.83C336.24 90.1 328.13 89.6 320 89.6C311.87 89.6 303.76 90.1 295.67 90.83C293.35 91.03 291.06 91.3 288.77 91.57C286.37 91.85 283.98 91.99 281.6 92.34C281.6 85.15 281.6 67.17 281.6 38.4Z" id="m4mCRSwAtW"></path><path d="M533.85 106.15C533.85 106.15 533.85 106.15 533.85 106.15C556.89 129.2 569.69 142 572.25 144.56C572.25 144.56 572.25 144.56 572.25 144.56C561.39 155.42 555.36 161.45 554.15 162.66C554.15 162.66 554.15 162.66 554.15 162.66C531.11 139.62 518.31 126.82 515.75 124.26C515.75 124.26 515.75 124.26 515.75 124.26C526.61 113.4 532.64 107.36 533.85 106.15Z" id="egauqvyzs"></path><path d="M307.2 153.6L307.2 371.2L524.8 371.2C524.8 363.52 524.8 359.25 524.8 358.4C524.8 245.48 432.92 153.6 320 153.6C318.29 153.6 314.03 153.6 307.2 153.6ZM332.8 179.65C421.43 185.93 492.47 256.97 498.75 345.6C487.69 345.6 432.37 345.6 332.8 345.6C332.8 246.03 332.8 190.71 332.8 179.65Z" id="egnbjJz07"></path></defs><g><g><g><use xlink:href="#m4mCRSwAtW" opacity="1" fill="#ffffff" fill-opacity="1"></use><g><use xlink:href="#m4mCRSwAtW" opacity="1" fill-opacity="0" stroke="#000000" stroke-width="1" stroke-opacity="0"></use></g></g><g><use xlink:href="#egauqvyzs" opacity="1" fill="#ffffff" fill-opacity="1"></use><g><use xlink:href="#egauqvyzs" opacity="1" fill-opacity="0" stroke="#000000" stroke-width="1" stroke-opacity="0"></use></g></g><g><use xlink:href="#egnbjJz07" opacity="1" fill="#ffffff" fill-opacity="1"></use><g><use xlink:href="#egnbjJz07" opacity="1" fill-opacity="0" stroke="#000000" stroke-width="1" stroke-opacity="0"></use></g></g></g></g></svg>